<svg xmlns="http://www.w3.org/2000/svg" width="1300" height="1200" viewBox="0 0 1300 1200">
  <defs><style>.paper{fill:#fff}.node{fill:#fff;stroke:#111;stroke-width:2}.line{stroke:#111;stroke-width:1.8;fill:none;marker-end:url(#m)}.text{font-family:"Times New Roman",serif;fill:#111}.title{font-size:24px;font-weight:700}.label{font-size:19px}.small{font-size:16px}</style><marker id="m" markerWidth="10" markerHeight="10" refX="9" refY="5" orient="auto"><path d="M0,0 L10,5 L0,10" fill="none" stroke="#111" stroke-width="1.4"/></marker></defs>
  <rect class="paper" width="1300" height="1200"/><text class="text title" x="650" y="55" text-anchor="middle">Biểu đồ hoạt động: Đăng nhập</text>
  <circle class="node" cx="650" cy="105" r="18"/><circle fill="#111" cx="650" cy="105" r="9"/><path class="line" d="M650 123 V165"/>
  <rect class="node" x="455" y="165" width="390" height="62" rx="16"/><text class="text label" x="650" y="203" text-anchor="middle">Nhập email/mật khẩu hoặc Google</text><path class="line" d="M650 227 V275"/>
  <rect class="node" x="500" y="275" width="300" height="62" rx="16"/><text class="text label" x="650" y="313" text-anchor="middle">Gửi yêu cầu xác thực</text><path class="line" d="M650 337 V390"/>
  <path class="node" d="M650 390 L790 475 L650 560 L510 475 Z"/><text class="text label" x="650" y="482" text-anchor="middle">Xác thực hợp lệ?</text>
  <path class="line" d="M510 475 H285 V675"/><text class="text small" x="400" y="455">Không</text><rect class="node" x="135" y="675" width="300" height="62" rx="16"/><text class="text label" x="285" y="713" text-anchor="middle">Hiển thị lỗi đăng nhập</text><path class="line" d="M285 737 V1100 H632"/>
  <path class="line" d="M650 560 V635"/><text class="text small" x="675" y="600">Có</text><rect class="node" x="490" y="635" width="320" height="62" rx="16"/><text class="text label" x="650" y="673" text-anchor="middle">Lấy thông tin vai trò</text><path class="line" d="M650 697 V755"/>
  <path class="node" d="M650 755 L790 840 L650 925 L510 840 Z"/><text class="text label" x="650" y="847" text-anchor="middle">Là Admin?</text>
  <path class="line" d="M510 840 H455 V1000"/><text class="text small" x="480" y="820">Không</text><rect class="node" x="305" y="1000" width="300" height="62" rx="16"/><text class="text label" x="455" y="1038" text-anchor="middle">Chuyển tới trang /app</text><path class="line" d="M455 1062 V1100 H632"/>
  <path class="line" d="M790 840 H845 V1000"/><text class="text small" x="820" y="820">Có</text><rect class="node" x="695" y="1000" width="300" height="62" rx="16"/><text class="text label" x="845" y="1038" text-anchor="middle">Chuyển tới trang /admin</text><path class="line" d="M845 1062 V1100 H668"/>
  <circle class="node" cx="650" cy="1100" r="22"/><circle fill="#111" cx="650" cy="1100" r="13"/>
</svg>
